<svg width="1200" height="630" viewBox="0 0 1200 630" fill="none" xmlns="http://www.w3.org/2000/svg">
  <rect width="1200" height="630" fill="#09090b"/>
  <rect x="0" y="0" width="1200" height="4" fill="#6366f1"/>
  <!-- Decorative -->
  <circle cx="1070" cy="130" r="100" stroke="#6366f1" stroke-width="1" opacity="0.15"/>
  <circle cx="140" cy="530" r="190" stroke="#1a1a1f" stroke-width="1" opacity="0.5"/>
  <!-- Shield icon -->
  <g transform="translate(100, 155)">
    <path d="M 35 0 L 70 15 L 70 45 C 70 70 35 85 35 85 C 35 85 0 70 0 45 L 0 15 Z" stroke="#6366f1" stroke-width="3" fill="#6366f1" fill-opacity="0.1"/>
    <!-- Lock inside shield -->
    <rect x="22" y="38" width="26" height="20" rx="3" stroke="#818cf8" stroke-width="2" fill="none"/>
    <path d="M 28 38 L 28 30 C 28 23 42 23 42 30 L 42 38" stroke="#818cf8" stroke-width="2" fill="none" stroke-linecap="round"/>
    <circle cx="35" cy="50" r="3" fill="#818cf8"/>
  </g>
  <!-- Title -->
  <text x="100" y="320" font-family="Inter, system-ui, sans-serif" font-size="42" font-weight="700" fill="white" letter-spacing="-0.02em">Webhook Security</text>
  <text x="100" y="375" font-family="Inter, system-ui, sans-serif" font-size="42" font-weight="700" fill="white" letter-spacing="-0.02em">Best Practices</text>
  <text x="100" y="425" font-family="Inter, system-ui, sans-serif" font-size="36" font-weight="700" fill="#a1a1aa" letter-spacing="-0.02em">Signatures, Verification &amp; HMAC</text>
  <!-- Branding -->
  <text x="100" y="560" font-family="Inter, system-ui, sans-serif" font-size="18" font-weight="600" fill="#6366f1">Chis Blog</text>
  <text x="100" y="585" font-family="Inter, system-ui, sans-serif" font-size="14" fill="#3f3f46">trychis.com</text>
</svg>
