<svg width="1200" height="630" viewBox="0 0 1200 630" fill="none" xmlns="http://www.w3.org/2000/svg">
  <rect width="1200" height="630" fill="#09090b"/>
  <rect x="0" y="0" width="1200" height="4" fill="#6366f1"/>
  <!-- Decorative circles -->
  <circle cx="1050" cy="150" r="120" stroke="#6366f1" stroke-width="1" opacity="0.15"/>
  <circle cx="1050" cy="150" r="80" stroke="#6366f1" stroke-width="1" opacity="0.1"/>
  <circle cx="150" cy="500" r="200" stroke="#1a1a1f" stroke-width="1" opacity="0.5"/>
  <!-- Retry arrows icon -->
  <g transform="translate(100, 180)">
    <path d="M 40 0 A 40 40 0 1 1 0 40" stroke="#6366f1" stroke-width="3" fill="none" stroke-linecap="round"/>
    <polygon points="38,-8 48,2 32,2" fill="#6366f1"/>
    <path d="M -40 0 A 40 40 0 1 1 0 -40" stroke="#818cf8" stroke-width="3" fill="none" stroke-linecap="round" transform="translate(0,0)"/>
    <polygon points="-38,8 -48,-2 -32,-2" fill="#818cf8"/>
  </g>
  <!-- Title -->
  <text x="100" y="320" font-family="Inter, system-ui, sans-serif" font-size="42" font-weight="700" fill="white" letter-spacing="-0.02em">Webhook Retry Strategies</text>
  <text x="100" y="375" font-family="Inter, system-ui, sans-serif" font-size="36" font-weight="700" fill="#a1a1aa" letter-spacing="-0.02em">A Complete Guide to</text>
  <text x="100" y="425" font-family="Inter, system-ui, sans-serif" font-size="36" font-weight="700" fill="#a1a1aa" letter-spacing="-0.02em">Exponential Backoff</text>
  <!-- Branding -->
  <text x="100" y="560" font-family="Inter, system-ui, sans-serif" font-size="18" font-weight="600" fill="#6366f1">Chis Blog</text>
  <text x="100" y="585" font-family="Inter, system-ui, sans-serif" font-size="14" fill="#3f3f46">trychis.com</text>
</svg>
